<svg width="18" height="18" viewBox="0 0 18 18" fill="none" xmlns="http://www.w3.org/2000/svg">
<path d="M15.75 0H5.25C4.28487 0 3.5 0.784875 3.5 1.75H14C14.9651 1.75 15.75 2.53487 15.75 3.5V10.5C16.7151 10.5 17.5 9.71513 17.5 8.75V1.75C17.5 0.784875 16.7151 0 15.75 0Z" fill="black"/>
<path d="M2.625 14V17.2953L3.95062 16.4999L8.11738 14H12.25C13.2151 14 14 13.2151 14 12.25V5.25C14 4.28487 13.2151 3.5 12.25 3.5H1.75C0.784875 3.5 0 4.28487 0 5.25V12.25C0 13.2151 0.784875 14 1.75 14H2.625ZM1.75 5.25H12.25V12.25H7.63262L4.375 14.2047V12.25H1.75V5.25Z" fill="black"/>
</svg>
