<svg width="43" height="43" viewBox="0 0 43 43" fill="none" xmlns="http://www.w3.org/2000/svg">
<path d="M31.64 20.0667C31.2279 19.5292 30.7263 19.0633 30.2604 18.5975C29.06 17.5225 27.6983 16.7521 26.5517 15.6233C23.8821 13.0075 23.2908 8.68958 24.9929 5.375C23.2908 5.78708 21.8038 6.71875 20.5317 7.74C15.8913 11.4667 14.0638 18.0421 16.2496 23.6858C16.3213 23.865 16.3929 24.0442 16.3929 24.2771C16.3929 24.6712 16.1242 25.0296 15.7658 25.1729C15.3538 25.3521 14.9238 25.2446 14.5833 24.9579C14.4817 24.8727 14.3966 24.7695 14.3325 24.6533C12.3079 22.0912 11.9854 18.4183 13.3471 15.48C10.355 17.9167 8.72459 22.0375 8.95751 25.9254C9.06501 26.8212 9.17251 27.7171 9.47709 28.6129C9.72792 29.6879 10.2117 30.7629 10.7492 31.7125C12.6842 34.8121 16.0346 37.0337 19.6358 37.4817C23.47 37.9654 27.5729 37.2667 30.5113 34.615C33.79 31.6408 34.9367 26.875 33.2525 22.79L33.0196 22.3242C32.6433 21.5 31.64 20.0667 31.64 20.0667ZM25.9783 31.3542C25.4767 31.7842 24.6525 32.25 24.0075 32.4292C22.0008 33.1458 19.9942 32.1425 18.8117 30.96C20.9438 30.4583 22.2158 28.8817 22.5921 27.2871C22.8967 25.8537 22.3233 24.6712 22.0904 23.2917C21.8754 21.9658 21.9113 20.8371 22.395 19.6008C22.7354 20.2817 23.0938 20.9625 23.5238 21.5C24.9033 23.2917 27.0713 24.08 27.5371 26.5167C27.6088 26.7675 27.6446 27.0183 27.6446 27.2871C27.6983 28.7562 27.0533 30.3687 25.9783 31.3542Z" fill="#FF4D4D"/>
</svg>
