<svg width="20" height="20" viewBox="0 0 20 20" fill="none" xmlns="http://www.w3.org/2000/svg">
<path d="M15.0625 17.857V19M15.0625 17.857C14.5252 17.8588 13.9956 17.7439 13.5197 17.5222C13.0438 17.3005 12.6361 16.9788 12.3321 16.585M15.0625 17.857C15.5998 17.8588 16.1294 17.7439 16.6053 17.5222C17.0812 17.3005 17.4889 16.9788 17.7929 16.585M12.3321 16.585L11.125 17.285M12.3321 16.585C11.9717 16.1185 11.7788 15.5659 11.7788 15C11.7788 14.4341 11.9717 13.8815 12.3321 13.415M17.7929 16.585L19 17.285M17.7929 16.585C18.1533 16.1185 18.3462 15.5659 18.3462 15C18.3462 14.4341 18.1533 13.8815 17.7929 13.415M15.0625 12.143C15.5998 12.1412 16.1294 12.2561 16.6053 12.4778C17.0812 12.6995 17.4889 13.0212 17.7929 13.415M15.0625 12.143C14.5252 12.1412 13.9956 12.2561 13.5197 12.4778C13.0438 12.6995 12.6361 13.0212 12.3321 13.415M15.0625 12.143V11M17.7929 13.415L19 12.714M12.3321 13.415L11.125 12.715M1 1H19M1 7H19M1 13H6.625" stroke="black" stroke-width="1.5" stroke-linecap="round" stroke-linejoin="round"/>
</svg>
