<svg width="20" height="20" viewBox="0 0 20 20" fill="none" xmlns="http://www.w3.org/2000/svg">
<g clip-path="url(#clip0_13102_4516)">
<path d="M12.1832 2.21833C12.3414 2.26258 12.4893 2.33758 12.6185 2.43902C12.7477 2.54047 12.8556 2.66638 12.9361 2.80955C13.0166 2.95273 13.068 3.11036 13.0876 3.27345C13.1071 3.43653 13.0943 3.60186 13.0499 3.75999L9.3574 16.9158C9.26789 17.2351 9.05523 17.5057 8.76618 17.6682C8.47714 17.8306 8.13541 17.8716 7.81615 17.7821C7.4969 17.6926 7.22628 17.4799 7.06382 17.1909C6.90137 16.9018 6.86039 16.5601 6.9499 16.2408L10.6424 3.08333C10.6867 2.92523 10.7618 2.77742 10.8633 2.64833C10.9648 2.51925 11.0907 2.41143 11.2339 2.33102C11.377 2.25062 11.5346 2.1992 11.6977 2.17973C11.8607 2.16025 12.026 2.17308 12.1841 2.21749L12.1832 2.21833ZM6.2999 5.58083C6.53399 5.8152 6.66547 6.13291 6.66547 6.46416C6.66547 6.79541 6.53399 7.11312 6.2999 7.34749L3.6499 9.99999L6.30157 12.6517C6.53595 12.8862 6.66759 13.2042 6.66751 13.5357C6.66743 13.8673 6.53565 14.1852 6.30115 14.4196C6.06666 14.654 5.74866 14.7856 5.41711 14.7855C5.08556 14.7854 4.76762 14.6537 4.53324 14.4192L0.997403 10.8833C0.763319 10.649 0.631836 10.3312 0.631836 9.99999C0.631836 9.66874 0.763319 9.35104 0.997403 9.11666L4.5324 5.58083C4.64849 5.46467 4.78632 5.37252 4.93803 5.30966C5.08974 5.24679 5.25235 5.21443 5.41657 5.21443C5.58079 5.21443 5.7434 5.24679 5.89511 5.30966C6.04682 5.37252 6.18382 5.46467 6.2999 5.58083ZM13.6999 7.34749C13.5771 7.23306 13.4786 7.09506 13.4103 6.94172C13.3419 6.78839 13.3052 6.62287 13.3023 6.45503C13.2993 6.28719 13.3302 6.12048 13.393 5.96483C13.4559 5.80918 13.5495 5.66779 13.6682 5.5491C13.7869 5.4304 13.9283 5.33682 14.0839 5.27396C14.2396 5.21109 14.4063 5.18021 14.5741 5.18318C14.7419 5.18614 14.9075 5.22287 15.0608 5.29119C15.2141 5.35951 15.3521 5.45802 15.4666 5.58083L19.0024 9.11583C19.2367 9.35024 19.3684 9.66812 19.3684 9.99958C19.3684 10.331 19.2367 10.6489 19.0024 10.8833L15.4674 14.4192C15.3513 14.5353 15.2136 14.6274 15.0619 14.6902C14.9102 14.7531 14.7477 14.7855 14.5835 14.7855C14.4194 14.7856 14.2568 14.7533 14.1051 14.6905C13.9534 14.6277 13.8156 14.5356 13.6995 14.4196C13.5834 14.3035 13.4913 14.1657 13.4284 14.0141C13.3655 13.8624 13.3332 13.6999 13.3331 13.5357C13.3331 13.3715 13.3654 13.209 13.4282 13.0573C13.491 12.9056 13.583 12.7678 13.6991 12.6517L16.3507 9.99999L13.6999 7.34749Z" fill="black"/>
</g>
<defs>
<clipPath id="clip0_13102_4516">
<rect width="20" height="20" fill="white"/>
</clipPath>
</defs>
</svg>
